# Blender v2.92.0 OBJ File: 'untitled1.blend'
# www.blender.org
mtllib cube.mtl
o Cube_Cube.001
v -0.999744 -1.001222 1.000000
v -0.999744 0.998778 1.000000
v -0.999744 -1.001222 -1.000000
v -0.999744 0.998778 -1.000000
v 1.000256 -1.001222 1.000000
v 1.000256 0.998778 1.000000
v 1.000256 -1.001222 -1.000000
v 1.000256 0.998778 -1.000000
vt 0.375000 0.000000
vt 0.625000 0.000000
vt 0.625000 0.250000
vt 0.375000 0.250000
vt 0.625000 0.500000
vt 0.375000 0.500000
vt 0.004792 0.001831
vt 0.465049 0.001831
vt 0.465049 0.462088
vt 0.004792 0.462088
vt 0.465049 0.922346
vt 0.004792 0.922346
vt 0.125000 0.500000
vt 0.375000 0.750000
vt 0.125000 0.750000
vt 0.925306 0.001831
vt 0.925306 0.462088
vn -1.0000 0.0000 0.0000
vn 0.0000 0.0000 -1.0000
vn 1.0000 0.0000 0.0000
vn 0.0000 0.0000 1.0000
vn 0.0000 -1.0000 0.0000
vn 0.0000 1.0000 0.0000
usemtl None
s off
f 1/1/1 2/2/1 4/3/1 3/4/1
f 3/4/2 4/3/2 8/5/2 7/6/2
f 7/7/3 8/8/3 6/9/3 5/10/3
f 5/10/4 6/9/4 2/11/4 1/12/4
f 3/13/5 7/6/5 5/14/5 1/15/5
f 8/8/6 4/16/6 2/17/6 6/9/6
